<svg xmlns="http://www.w3.org/2000/svg" height="49.323734" width="34.371841" version="1.1" xmlns:dc="http://purl.org/dc/elements/1.1/">
<style type="text/css">
.st0{fill-rule:evenodd;clip-rule:evenodd;fill:#086D39;}
.st1{fill-rule:evenodd;clip-rule:evenodd;fill:#A2A7B8;}
.st2{fill:#8BB947;}
.st3{fill-rule:evenodd;clip-rule:evenodd;fill:#8BB947;}
.st4{fill-rule:evenodd;clip-rule:evenodd;fill:#FFFFFF;}
.st6{fill-rule:evenodd;clip-rule:evenodd;fill:url(#SVGID_1_);}
.st7{fill-rule:evenodd;clip-rule:evenodd;fill:url(#SVGID_2_);}
.st8{fill-rule:evenodd;clip-rule:evenodd;fill:url(#SVGID_3_);}
</style>
<g transform="translate(-2.851001,-2.9952658)">
<path fill="#8bb947" class="st2" d="m22.5,30.153c3.614,0.053,8.018,2.654,9.008,4.197,0.635,0.993,0.812,2.13,0.574,3.285-0.213,1.036-0.771,2.058-1.633,2.954v0.005c-2.212,2.301-6.661,3.957-12.524,2.795-0.329-0.067-0.63-0.144-0.9-0.23-3.013-0.979-5.334-3.714-6.768-7.243-1.405-3.459-1.954-7.697-1.453-11.771,0.075-0.614,0.169-1.197,0.279-1.744,0.617-3.067,1.575-6.034,3.651-8.553,2.039-2.474,5.136-4.459,10.025-5.577l0.001-0.004c3.271-0.738,7.767-0.459,11.54,1.981l-0.419,0.938c-4.343-3.753-10.085-2.083-11.166-1.809-3.29,0.886-6.204,2.125-8.932,5.432-1.658,2.014-3.135,6.746-3.494,9.677-0.445,3.606,0.284,7.357,1.525,10.412,1.212,2.984,2.907,5.779,5.399,6.59,0.264,0.085,0.51,0.15,0.736,0.195,5.311,1.057,9.328-0.021,11.228-1.998l0.082-0.242c0.571-0.594,1.011-1.784,1.13-2.363,0.094-0.462,0.021-1.409-0.237-1.813-0.689-1.076-4.229-3.255-7.015-3.542l-0.637-1.572z"/>
<path d="m5.412,12.163c1.187,5.465,5.732,2.356,3.744,11.136-1.616,0.209-6.984-1.122-3.744-11.136z" fill-rule="evenodd" class="st3" fill="#8bb947"/>
<path d="m2.851,35.609c5.045,1.815,4.969-2.906,10.293,1.789,0.217,0.19,0.706,1.12,1.551,0.736-1.216,1.963-6.615,7.18-11.844-2.525z" fill-rule="evenodd" class="st3" fill="#8bb947"/>
<path d="m18.897,24.473c-4.475,3.563,0.775,8.457-8.432,9.017-1.032-2.067-2.573-9.666,8.432-9.017z" fill-rule="evenodd" class="st3" fill="#8bb947"/>
<path d="m35.724,18.524c5.134-3.523-4.546-15.089-4.822-9.468-3.828,1.034,4.052,4.622,4.822,9.468z" fill-rule="evenodd" class="st3" fill="#8bb947"/>
<path d="m27.14,3.951c-4.372-4.298-13.893,7.34-8.372,6.543,2.541,4.319,3.437-5.54,8.372-6.543z" fill-rule="evenodd" class="st3" fill="#8bb947"/>
<path d="m36.004,16.893c0.006-6.321-5.216-9.425-5.088-7.834-0.799,0.219,5.158,2.348,5.088,7.834z" fill-rule="evenodd" class="st0" fill="#086d39"/>
<path d="m24.918,4.347c-4.819,0.933-6.921,5.73-5.218,5.041,0.059,0.19,0.27,0.656,0.478,0.369,0.095-0.132,0.027-1.079,0.396-1.96,0.554-1.33,2.304-2.753,4.344-3.45z" fill-rule="evenodd" class="st0" fill="#086d39"/>
<path d="m16.141,27.85c-7.027,1.361-5.025,5.803-4.741,5.41,0.094-0.131,0.027-1.079,0.396-1.96,0.556-1.33,2.305-2.753,4.345-3.45z" fill-rule="evenodd" class="st0" fill="#086d39"/>
<path d="m12.432,24.954,17.027-2.016c1.081-0.128,2.064,0.688,2.188,1.814,0.123,1.126-0.66,2.15-1.741,2.28l-17.027,2.016c-1.081,0.127-2.065-0.689-2.188-1.815-0.124-1.127,0.66-2.152,1.741-2.279z" fill-rule="evenodd" class="st1" fill="#a2a7b8"/>
<path d="m12.411,24.994,16.971-2.051c1.077-0.13,2.08,0.453,2.229,1.297,0.148,0.843-0.609,1.639-1.687,1.77l-16.971,2.052c-1.078,0.13-2.08-0.454-2.229-1.297-0.149-0.845,0.609-1.641,1.687-1.771z" fill-rule="evenodd" class="st4" fill="#FFF"/>
<path d="m11.711,19.98,17.026-2.016c1.081-0.127,2.065,0.689,2.188,1.814,0.122,1.126-0.66,2.151-1.741,2.28l-17.027,2.016c-1.081,0.128-2.064-0.688-2.188-1.814-0.121-1.126,0.661-2.152,1.742-2.28z" fill-rule="evenodd" class="st1" fill="#a2a7b8"/>
<path d="m11.691,20.021,16.97-2.052c1.078-0.13,2.08,0.454,2.229,1.297,0.149,0.844-0.608,1.64-1.687,1.771l-16.97,2.051c-1.078,0.13-2.08-0.453-2.229-1.297s0.61-1.64,1.687-1.77z" fill-rule="evenodd" class="st4" fill="#FFF"/>
<path d="M11.578,15.056,28.605,13.04c1.081-0.128,2.064,0.688,2.188,1.814,0.123,1.126-0.66,2.151-1.741,2.28l-17.028,2.016c-1.081,0.127-2.065-0.689-2.188-1.814-0.122-1.128,0.661-2.153,1.742-2.28z" fill-rule="evenodd" class="st1" fill="#a2a7b8"/>
<path d="m11.558,15.096,16.971-2.051c1.077-0.13,2.08,0.453,2.229,1.297,0.148,0.843-0.609,1.639-1.687,1.771l-16.971,2.051c-1.078,0.13-2.08-0.454-2.229-1.297-0.149-0.846,0.609-1.641,1.687-1.771z" fill-rule="evenodd" class="st4" fill="#FFF"/>
<path d="m14.419,9.536,7.609-0.878c1.081-0.125,2.064,0.688,2.188,1.814,0.123,1.125-0.66,2.152-1.741,2.279l-7.609,0.879c-1.071,0.123-2.065-0.688-2.188-1.814-0.123-1.127,0.66-2.152,1.741-2.28z" fill-rule="evenodd" class="st1" fill="#a2a7b8"/>
<path d="M14.398,9.577,21.94,8.8c1.08-0.112,2.08,0.452,2.229,1.296s-0.609,1.64-1.687,1.77l-7.542,0.778c-1.08,0.111-2.08-0.453-2.229-1.297-0.148-0.844,0.61-1.64,1.687-1.77z" fill-rule="evenodd" class="st4" fill="#FFF"/>
<linearGradient id="SVGID_1_" y2="57.882801" gradientUnits="userSpaceOnUse" x2="0.124" gradientTransform="matrix(1.0055,0,0,0.2162,17.2595,39.1317)" y1="57.882801" x1="6.2314">
<stop stop-color="#231F20" offset="0"/>
<stop stop-color="#FFF" offset="1"/>
</linearGradient>
<polygon fill-rule="evenodd" points="18.984,52.319,17.384,51.05,17.384,51.05,23.525,50.976,21.917,52.319" class="st6" fill="url(#SVGID_1_)"/>
<path d="m19.743,29.15,8.005-0.695c1.183-0.103,2.252,0.688,2.386,1.814,0.135,1.126-0.719,2.178-1.898,2.28l-5.288,0.459v12.073h-4.736c-0.006-4.396,0.839-9.15-0.312-13.368l-0.004-0.015-0.003-0.012-0.001-0.004-0.004-0.016-0.004-0.016-0.003-0.016-0.01-0.047-0.001-0.004-0.002-0.012-0.003-0.016-0.003-0.017-0.001-0.008-0.001-0.008-0.003-0.016-0.002-0.017-0.001-0.012-0.003-0.021-0.002-0.016-0.002-0.017c-0.137-1.119,0.715-2.17,1.896-2.273zm10.39,1.12zm-12.289,1.16z" fill-rule="evenodd" class="st1" fill="#a2a7b8"/>
<path d="m19.205,29.42,8.862-1.14c0.85-0.071,1.765,0.729,1.861,1.507,0.097,0.777-0.517,1.504-1.364,1.574l-7.219,0.887v8.337h-3.404c-0.004-3.035,0.766-6.481-0.061-9.394l-0.003-0.011-0.002-0.009-0.001-0.002-0.002-0.011-0.003-0.011-0.002-0.011-0.007-0.032-0.001-0.003-0.001-0.009-0.002-0.011-0.002-0.011-0.001-0.005-0.001-0.006-0.002-0.012-0.001-0.011-0.001-0.009-0.002-0.013-0.001-0.012-0.001-0.011c-0.1-0.773,0.512-1.499,1.361-1.571zm10.723,0.367zm-12.087,1.208z" fill-rule="evenodd" class="st4" fill="#FFF"/>
<linearGradient id="SVGID_2_" y2="57.841801" gradientUnits="userSpaceOnUse" x2="0" gradientTransform="matrix(0.9665,0,0,1.0552,17.3813,-12.9256)" y1="57.841801" x1="6.4316001">
<stop stop-color="#231F20" offset="0"/>
<stop stop-color="#FFF" offset="1"/>
</linearGradient>
<rect fill-rule="evenodd" class="st7" height="5.9829998" width="6.2160001" y="45.120998" x="17.381001" fill="url(#SVGID_2_)"/>
<linearGradient id="SVGID_3_" y2="59.855499" gradientUnits="userSpaceOnUse" x2="14.5278" gradientTransform="matrix(1,0,0,1.1026,13.335,-25.1625)" y1="59.855499">
<stop stop-color="#FFF" offset="0"/>
<stop stop-color="#FFF" offset="0.6"/>
<stop stop-color="#9C9C9C" offset="1"/>
</linearGradient>
<polygon fill-rule="evenodd" points="23.575,46.178,17.347,46.178,13.335,43.359,13.335,35.488,13.335,35.488,27.863,35.488,27.863,43.359" class="st8" fill="url(#SVGID_3_)"/>
<path d="m10.579,46.324c3.473-1.767,0.574-4.28,6.842-4.493,0.426,1.053,0.479,4.904-6.842,4.493z" fill-rule="evenodd" class="st3" fill="#8bb947"/>
<path d="m5.206,12.693c0.815,5.446,3.495,5.308,3.773,9.067-0.277,0.337-3.631-4.625-3.773-9.067z" fill-rule="evenodd" class="st0" fill="#086d39"/>
<path fill="#8bb947" class="st2" d="m31.497,34.334,0.012,0.019c0.635,0.99,0.812,2.128,0.574,3.283-0.212,1.036-0.771,2.058-1.633,2.954v0.005c-2.212,2.302-6.661,3.959-12.524,2.794-0.329-0.065-0.63-0.144-0.9-0.23-3.012-0.979-5.334-3.714-6.768-7.242-0.278-0.685-0.523-1.4-0.732-2.14,0.602-0.079,1.179-0.223,1.726-0.425,0.172,0.531,0.361,1.048,0.563,1.546,1.212,2.985,2.907,5.779,5.399,6.589,0.263,0.085,0.51,0.151,0.736,0.196,5.311,1.056,9.327-0.021,11.228-1.998l0.082-0.242c0.571-0.594,1.011-1.784,1.13-2.364,0.095-0.461,0.021-1.408-0.237-1.813-0.167-0.261-0.5-0.585-0.949-0.932h2.293z"/>
<path d="m11.555,45.937c3.124-0.596,3.448-3.803,5.561-3.874,0.144,0.354-3.092,4.012-5.561,3.874z" fill-rule="evenodd" class="st0" fill="#086d39"/>
<path d="m2.996,35.872c5.445,1.844,5.413,0.116,9.749,2.01,0.131,0.416-5.943,0.282-9.749-2.01z" fill-rule="evenodd" class="st0" fill="#086d39"/>
</g>
</svg>
