<svg id="Layer_1" data-name="Layer 1" xmlns="http://www.w3.org/2000/svg" viewBox="0 0 25 25"><defs><style>.cls-1{fill:#fff;}</style></defs><title>epa_icons</title><path class="cls-1" d="M24.85,12.5q0,3.68-.08,5.1a7.53,7.53,0,0,1-2,5.18,7.53,7.53,0,0,1-5.18,2q-1.41.08-5.1,0.08t-5.1-.08a7.53,7.53,0,0,1-5.18-2,7.54,7.54,0,0,1-2-5.18Q0.15,16.18.15,12.5T0.23,7.4a7.54,7.54,0,0,1,2-5.18A7.55,7.55,0,0,1,7.4.23Q8.82,0.15,12.5.15t5.1,0.08a7.55,7.55,0,0,1,5.18,2,7.53,7.53,0,0,1,2,5.18Q24.85,8.82,24.85,12.5ZM13.73,2.36H9.57L8,2.41a12.75,12.75,0,0,0-1.66.16,6.47,6.47,0,0,0-1.15.3A4.22,4.22,0,0,0,2.87,5.22a6.28,6.28,0,0,0-.3,1.15A13.13,13.13,0,0,0,2.41,8c0,0.65,0,1.17,0,1.55s0,1,0,1.7,0,1.16,0,1.23,0,0.49,0,1.23,0,1.31,0,1.7,0,0.91,0,1.55a13,13,0,0,0,.16,1.66,6.26,6.26,0,0,0,.3,1.15,4.22,4.22,0,0,0,2.35,2.35,6.68,6.68,0,0,0,1.15.3A12.75,12.75,0,0,0,8,22.59l1.55,0h5.85l1.55,0a12.67,12.67,0,0,0,1.66-.16,6.66,6.66,0,0,0,1.15-.3,4.22,4.22,0,0,0,2.35-2.35,6.66,6.66,0,0,0,.3-1.15A12.67,12.67,0,0,0,22.59,17q0-1,0-1.55t0-1.7c0-.75,0-1.16,0-1.23s0-.48,0-1.23,0-1.31,0-1.7,0-.9,0-1.55a12.75,12.75,0,0,0-.16-1.66,6.68,6.68,0,0,0-.3-1.15,4.22,4.22,0,0,0-2.35-2.35,6.45,6.45,0,0,0-1.15-.3A12.67,12.67,0,0,0,17,2.41l-1.55,0h-1.7ZM17,8a6.11,6.11,0,0,1,1.85,4.49,6.31,6.31,0,0,1-6.34,6.34A6.31,6.31,0,0,1,6.17,12.5,6.31,6.31,0,0,1,12.5,6.17,6.11,6.11,0,0,1,17,8Zm-1.58,7.4a4.11,4.11,0,0,0,0-5.82A4,4,0,0,0,12.5,8.38,4.11,4.11,0,0,0,8.38,12.5a4.11,4.11,0,0,0,4.12,4.12A4,4,0,0,0,15.41,15.41ZM20.14,4.86a1.47,1.47,0,0,1,0,2.09,1.48,1.48,0,0,1-2.52-1A1.48,1.48,0,0,1,20.14,4.86Z"/></svg>