<svg id="Layer_1" data-name="Layer 1" xmlns="http://www.w3.org/2000/svg" viewBox="0 0 25 25"><defs><style>.cls-1{fill:#fff;}</style></defs><title>epa_icons</title><path class="cls-1" d="M20.22,0.15a4.45,4.45,0,0,1,3.27,1.36,4.46,4.46,0,0,1,1.36,3.27V20.22a4.64,4.64,0,0,1-4.63,4.63h-3V15.28h3.2l0.48-3.73H17.2V9.17a2.05,2.05,0,0,1,.38-1.35A1.87,1.87,0,0,1,19,7.37l2,0V4a21.6,21.6,0,0,0-2.86-.15,4.77,4.77,0,0,0-3.5,1.29A4.85,4.85,0,0,0,13.34,8.8v2.75H10.12v3.73h3.22v9.57H4.78a4.46,4.46,0,0,1-3.27-1.36A4.46,4.46,0,0,1,.15,20.22V4.78A4.46,4.46,0,0,1,1.51,1.51,4.46,4.46,0,0,1,4.78.15H20.22Z"/></svg>