<svg id="Layer_1" data-name="Layer 1" xmlns="http://www.w3.org/2000/svg" viewBox="0 0 25 25"><defs><style>.cls-1{fill:#fff;}</style></defs><title>epa_icons</title><path class="cls-1" d="M22.76,17.76a24,24,0,0,1-.36,4.85A2.62,2.62,0,0,1,21.6,24a2.41,2.41,0,0,1-1.41.64,74.08,74.08,0,0,1-7.69.29,74,74,0,0,1-7.69-.29A2.44,2.44,0,0,1,3.39,24a2.53,2.53,0,0,1-.8-1.37,23.5,23.5,0,0,1-.36-4.85,24,24,0,0,1,.36-4.85,2.63,2.63,0,0,1,.8-1.37,2.52,2.52,0,0,1,1.43-.65q2.54-.28,7.67-0.28t7.69,0.28a2.6,2.6,0,0,1,2.22,2A23.5,23.5,0,0,1,22.76,17.76ZM6.61,14.32H8.1V13H3.77v1.3H5.23V22.2H6.61V14.32ZM8.94,0.09h1.41L8.68,5.62V9.37H7.29V5.62a23.42,23.42,0,0,0-.84-2.94Q5.94,1.25,5.55.09H7L8,3.73ZM10.6,22.2h1.23V15.35H10.6v5.24a1.1,1.1,0,0,1-.79.58,0.28,0.28,0,0,1-.29-0.29,3.65,3.65,0,0,1,0-.48v-5H8.28v5.42a3.4,3.4,0,0,0,.11,1,0.74,0.74,0,0,0,.8.51,2,2,0,0,0,1.41-.84V22.2ZM14.07,4.7V7.13a2.73,2.73,0,0,1-.39,1.63,1.7,1.7,0,0,1-1.47.71,1.72,1.72,0,0,1-1.45-.71,2.77,2.77,0,0,1-.39-1.63V4.7a2.7,2.7,0,0,1,.39-1.62,1.71,1.71,0,0,1,1.45-.71,1.7,1.7,0,0,1,1.47.71A2.7,2.7,0,0,1,14.07,4.7ZM12.81,7.36V4.45q0-1-.6-1c-0.4,0-.6.32-0.6,1V7.36c0,0.65.2,1,.6,1S12.81,8,12.81,7.36Zm3.74,12.79V17.42A4.93,4.93,0,0,0,16.42,16a1,1,0,0,0-1-.78,1.67,1.67,0,0,0-1.29.75V13H12.92V22.2h1.23V21.53a1.72,1.72,0,0,0,1.29.76,1,1,0,0,0,1-.76A5.09,5.09,0,0,0,16.55,20.15Zm-1.23-2.83v2.92q0,0.93-.54.93a0.89,0.89,0,0,1-.62-0.31V16.7a0.9,0.9,0,0,1,.62-0.31C15.13,16.39,15.31,16.7,15.31,17.32ZM18.71,2.46V9.37H17.45V8.61A2,2,0,0,1,16,9.47,0.77,0.77,0,0,1,15.2,9a3.61,3.61,0,0,1-.11-1V2.46h1.26V7.54a4.19,4.19,0,0,0,0,.48,0.29,0.29,0,0,0,.29.3,1.1,1.1,0,0,0,.79-0.59V2.46h1.26ZM21.23,20V19.83H20a7,7,0,0,1,0,.84,0.53,0.53,0,0,1-.56.5q-0.64,0-.64-1V19h2.48V17.58A2.74,2.74,0,0,0,20.85,16a1.89,1.89,0,0,0-2.95,0,2.67,2.67,0,0,0-.39,1.61V20a2.61,2.61,0,0,0,.4,1.61,1.78,1.78,0,0,0,1.5.71,1.71,1.71,0,0,0,1.79-1.48A6.3,6.3,0,0,0,21.23,20ZM20,17.34V18H18.75V17.34q0-.94.62-0.94T20,17.34Z"/></svg>