<svg id="Layer_1" data-name="Layer 1" xmlns="http://www.w3.org/2000/svg" viewBox="0 0 25 25"><defs><style>.cls-1{fill:#fff;}</style></defs><title>epa_icons</title><path class="cls-1" d="M25,4.74a10.77,10.77,0,0,1-2.57,2.65c0,0.15,0,.37,0,0.67a14.55,14.55,0,0,1-.6,4.12A14.94,14.94,0,0,1,20,16.12a15.48,15.48,0,0,1-2.93,3.34A13.05,13.05,0,0,1,13,21.79a15,15,0,0,1-5.13.87A14.24,14.24,0,0,1,0,20.35a11.15,11.15,0,0,0,1.24.06,10,10,0,0,0,6.37-2.19,5.14,5.14,0,0,1-4.8-3.56,6.47,6.47,0,0,0,1,.08,5.35,5.35,0,0,0,1.35-.17A5,5,0,0,1,2.18,12.8,5,5,0,0,1,1,9.53V9.47a5.11,5.11,0,0,0,2.32.65A5.1,5.1,0,0,1,1.67,8.29,5,5,0,0,1,1,5.85a5,5,0,0,1,.7-2.59A14.51,14.51,0,0,0,6.42,7a14.28,14.28,0,0,0,5.9,1.58,5.64,5.64,0,0,1-.13-1.17,4.94,4.94,0,0,1,1.5-3.63,5.14,5.14,0,0,1,7.38.12A10,10,0,0,0,24.33,2.7a5,5,0,0,1-2.26,2.83A10.26,10.26,0,0,0,25,4.74Z"/></svg>