<svg id="Layer_1" data-name="Layer 1" xmlns="http://www.w3.org/2000/svg" viewBox="0 0 25 25"><defs><style>.cls-1{fill:#fff;}</style></defs><title>epa_icons</title><path class="cls-1" d="M20.22,0.15a4.45,4.45,0,0,1,3.27,1.36,4.46,4.46,0,0,1,1.36,3.27V20.22a4.64,4.64,0,0,1-4.63,4.63H4.78a4.46,4.46,0,0,1-3.27-1.36A4.46,4.46,0,0,1,.15,20.22V4.78A4.46,4.46,0,0,1,1.51,1.51,4.46,4.46,0,0,1,4.78.15H20.22ZM10.38,14.91a3.42,3.42,0,0,0,0-4.82A3.28,3.28,0,0,0,8,9.09,3.4,3.4,0,0,0,4.56,12.5,3.4,3.4,0,0,0,8,15.91,3.28,3.28,0,0,0,10.38,14.91Zm9.07,0a3.42,3.42,0,0,0,0-4.82,3.42,3.42,0,0,0-4.83,0,3.42,3.42,0,0,0,0,4.82A3.42,3.42,0,0,0,19.45,14.91Z"/></svg>